<?xml version="1.0" encoding="UTF-8" standalone="no"?>
<!DOCTYPE svg PUBLIC "-//W3C//DTD SVG 1.1//EN" "http://www.w3.org/Graphics/SVG/1.1/DTD/svg11.dtd">
<svg width="100%" height="100%" viewBox="0 0 1250 1250" version="1.1" xmlns="http://www.w3.org/2000/svg" xmlns:xlink="http://www.w3.org/1999/xlink" xml:space="preserve" xmlns:serif="http://www.serif.com/" style="fill-rule:evenodd;clip-rule:evenodd;stroke-linejoin:round;stroke-miterlimit:2;">
    <g id="Rays" transform="matrix(1,0,0,1,25,1.34193)">
        <g>
            <g transform="matrix(3.06179e-16,1,-1,3.06179e-16,1062.5,487.5)">
                <path d="M137.5,1039.3C141.517,1039.3 145.349,1037.61 148.058,1034.64C150.766,1031.67 152.102,1027.71 151.739,1023.71L139.239,886.206C138.569,878.841 132.395,873.202 125,873.202L100,873.202C92.605,873.202 86.431,878.841 85.761,886.206L73.261,1023.71C72.898,1027.71 74.234,1031.67 76.942,1034.64C79.651,1037.61 83.483,1039.3 87.5,1039.3L137.5,1039.3Z" style="fill:rgb(116,115,148);"/>
            </g>
            <g transform="matrix(3.83306e-17,-1,1,3.83306e-17,137.5,712.5)">
                <path d="M137.5,1039.3C141.517,1039.3 145.349,1037.61 148.058,1034.64C150.766,1031.67 152.102,1027.71 151.739,1023.71L139.239,886.206C138.569,878.841 132.395,873.202 125,873.202L100,873.202C92.605,873.202 86.431,878.841 85.761,886.206L73.261,1023.71C72.898,1027.71 74.234,1031.67 76.942,1034.64C79.651,1037.61 83.483,1039.3 87.5,1039.3L137.5,1039.3Z" style="fill:rgb(116,115,148);"/>
            </g>
        </g>
        <g transform="matrix(0.939693,-0.34202,0.34202,0.939693,-169.028,241.397)">
            <g transform="matrix(3.06179e-16,1,-1,3.06179e-16,1062.5,487.5)">
                <path d="M137.5,1039.3C141.517,1039.3 145.349,1037.61 148.058,1034.64C150.766,1031.67 152.102,1027.71 151.739,1023.71L139.239,886.206C138.569,878.841 132.395,873.202 125,873.202L100,873.202C92.605,873.202 86.431,878.841 85.761,886.206L73.261,1023.71C72.898,1027.71 74.234,1031.67 76.942,1034.64C79.651,1037.61 83.483,1039.3 87.5,1039.3L137.5,1039.3Z" style="fill:rgb(116,115,148);"/>
            </g>
            <g transform="matrix(3.83306e-17,-1,1,3.83306e-17,137.5,712.5)">
                <path d="M137.5,1039.3C141.517,1039.3 145.349,1037.61 148.058,1034.64C150.766,1031.67 152.102,1027.71 151.739,1023.71L139.239,886.206C138.569,878.841 132.395,873.202 125,873.202L100,873.202C92.605,873.202 86.431,878.841 85.761,886.206L73.261,1023.71C72.898,1027.71 74.234,1031.67 76.942,1034.64C79.651,1037.61 83.483,1039.3 87.5,1039.3L137.5,1039.3Z" style="fill:rgb(116,115,148);"/>
            </g>
        </g>
        <g transform="matrix(0.766044,-0.642788,0.642788,0.766044,-245.299,526.046)">
            <g transform="matrix(3.06179e-16,1,-1,3.06179e-16,1062.5,487.5)">
                <path d="M137.5,1039.3C141.517,1039.3 145.349,1037.61 148.058,1034.64C150.766,1031.67 152.102,1027.71 151.739,1023.71L139.239,886.206C138.569,878.841 132.395,873.202 125,873.202L100,873.202C92.605,873.202 86.431,878.841 85.761,886.206L73.261,1023.71C72.898,1027.71 74.234,1031.67 76.942,1034.64C79.651,1037.61 83.483,1039.3 87.5,1039.3L137.5,1039.3Z" style="fill:rgb(116,115,148);"/>
            </g>
            <g transform="matrix(3.83306e-17,-1,1,3.83306e-17,137.5,712.5)">
                <path d="M137.5,1039.3C141.517,1039.3 145.349,1037.61 148.058,1034.64C150.766,1031.67 152.102,1027.71 151.739,1023.71L139.239,886.206C138.569,878.841 132.395,873.202 125,873.202L100,873.202C92.605,873.202 86.431,878.841 85.761,886.206L73.261,1023.71C72.898,1027.71 74.234,1031.67 76.942,1034.64C79.651,1037.61 83.483,1039.3 87.5,1039.3L137.5,1039.3Z" style="fill:rgb(116,115,148);"/>
            </g>
        </g>
        <g transform="matrix(0.5,-0.866025,0.866025,0.5,-219.615,819.615)">
            <g transform="matrix(3.06179e-16,1,-1,3.06179e-16,1062.5,487.5)">
                <path d="M137.5,1039.3C141.517,1039.3 145.349,1037.61 148.058,1034.64C150.766,1031.67 152.102,1027.71 151.739,1023.71L139.239,886.206C138.569,878.841 132.395,873.202 125,873.202L100,873.202C92.605,873.202 86.431,878.841 85.761,886.206L73.261,1023.71C72.898,1027.71 74.234,1031.67 76.942,1034.64C79.651,1037.61 83.483,1039.3 87.5,1039.3L137.5,1039.3Z" style="fill:rgb(116,115,148);"/>
            </g>
            <g transform="matrix(3.83306e-17,-1,1,3.83306e-17,137.5,712.5)">
                <path d="M137.5,1039.3C141.517,1039.3 145.349,1037.61 148.058,1034.64C150.766,1031.67 152.102,1027.71 151.739,1023.71L139.239,886.206C138.569,878.841 132.395,873.202 125,873.202L100,873.202C92.605,873.202 86.431,878.841 85.761,886.206L73.261,1023.71C72.898,1027.71 74.234,1031.67 76.942,1034.64C79.651,1037.61 83.483,1039.3 87.5,1039.3L137.5,1039.3Z" style="fill:rgb(116,115,148);"/>
            </g>
        </g>
        <g transform="matrix(0.939693,0.34202,-0.34202,0.939693,241.397,-169.028)">
            <g transform="matrix(3.06179e-16,1,-1,3.06179e-16,1062.5,487.5)">
                <path d="M137.5,1039.3C141.517,1039.3 145.349,1037.61 148.058,1034.64C150.766,1031.67 152.102,1027.71 151.739,1023.71L139.239,886.206C138.569,878.841 132.395,873.202 125,873.202L100,873.202C92.605,873.202 86.431,878.841 85.761,886.206L73.261,1023.71C72.898,1027.71 74.234,1031.67 76.942,1034.64C79.651,1037.61 83.483,1039.3 87.5,1039.3L137.5,1039.3Z" style="fill:rgb(116,115,148);"/>
            </g>
            <g transform="matrix(3.83306e-17,-1,1,3.83306e-17,137.5,712.5)">
                <path d="M137.5,1039.3C141.517,1039.3 145.349,1037.61 148.058,1034.64C150.766,1031.67 152.102,1027.71 151.739,1023.71L139.239,886.206C138.569,878.841 132.395,873.202 125,873.202L100,873.202C92.605,873.202 86.431,878.841 85.761,886.206L73.261,1023.71C72.898,1027.71 74.234,1031.67 76.942,1034.64C79.651,1037.61 83.483,1039.3 87.5,1039.3L137.5,1039.3Z" style="fill:rgb(116,115,148);"/>
            </g>
        </g>
        <g transform="matrix(0.766044,0.642788,-0.642788,0.766044,526.046,-245.299)">
            <g transform="matrix(3.06179e-16,1,-1,3.06179e-16,1062.5,487.5)">
                <path d="M137.5,1039.3C141.517,1039.3 145.349,1037.61 148.058,1034.64C150.766,1031.67 152.102,1027.71 151.739,1023.71L139.239,886.206C138.569,878.841 132.395,873.202 125,873.202L100,873.202C92.605,873.202 86.431,878.841 85.761,886.206L73.261,1023.71C72.898,1027.71 74.234,1031.67 76.942,1034.64C79.651,1037.61 83.483,1039.3 87.5,1039.3L137.5,1039.3Z" style="fill:rgb(116,115,148);"/>
            </g>
            <g transform="matrix(3.83306e-17,-1,1,3.83306e-17,137.5,712.5)">
                <path d="M137.5,1039.3C141.517,1039.3 145.349,1037.61 148.058,1034.64C150.766,1031.67 152.102,1027.71 151.739,1023.71L139.239,886.206C138.569,878.841 132.395,873.202 125,873.202L100,873.202C92.605,873.202 86.431,878.841 85.761,886.206L73.261,1023.71C72.898,1027.71 74.234,1031.67 76.942,1034.64C79.651,1037.61 83.483,1039.3 87.5,1039.3L137.5,1039.3Z" style="fill:rgb(116,115,148);"/>
            </g>
        </g>
        <g transform="matrix(-0.173648,0.984808,-0.984808,-0.173648,1295.07,113.304)">
            <g transform="matrix(3.06179e-16,1,-1,3.06179e-16,1062.5,487.5)">
                <path d="M137.5,1039.3C141.517,1039.3 145.349,1037.61 148.058,1034.64C150.766,1031.67 152.102,1027.71 151.739,1023.71L139.239,886.206C138.569,878.841 132.395,873.202 125,873.202L100,873.202C92.605,873.202 86.431,878.841 85.761,886.206L73.261,1023.71C72.898,1027.71 74.234,1031.67 76.942,1034.64C79.651,1037.61 83.483,1039.3 87.5,1039.3L137.5,1039.3Z" style="fill:rgb(116,115,148);"/>
            </g>
            <g transform="matrix(3.83306e-17,-1,1,3.83306e-17,137.5,712.5)">
                <path d="M137.5,1039.3C141.517,1039.3 145.349,1037.61 148.058,1034.64C150.766,1031.67 152.102,1027.71 151.739,1023.71L139.239,886.206C138.569,878.841 132.395,873.202 125,873.202L100,873.202C92.605,873.202 86.431,878.841 85.761,886.206L73.261,1023.71C72.898,1027.71 74.234,1031.67 76.942,1034.64C79.651,1037.61 83.483,1039.3 87.5,1039.3L137.5,1039.3Z" style="fill:rgb(116,115,148);"/>
            </g>
        </g>
        <g transform="matrix(-0.5,-0.866025,0.866025,-0.5,380.385,1419.62)">
            <g transform="matrix(3.06179e-16,1,-1,3.06179e-16,1062.5,487.5)">
                <path d="M137.5,1039.3C141.517,1039.3 145.349,1037.61 148.058,1034.64C150.766,1031.67 152.102,1027.71 151.739,1023.71L139.239,886.206C138.569,878.841 132.395,873.202 125,873.202L100,873.202C92.605,873.202 86.431,878.841 85.761,886.206L73.261,1023.71C72.898,1027.71 74.234,1031.67 76.942,1034.64C79.651,1037.61 83.483,1039.3 87.5,1039.3L137.5,1039.3Z" style="fill:rgb(116,115,148);"/>
            </g>
            <g transform="matrix(3.83306e-17,-1,1,3.83306e-17,137.5,712.5)">
                <path d="M137.5,1039.3C141.517,1039.3 145.349,1037.61 148.058,1034.64C150.766,1031.67 152.102,1027.71 151.739,1023.71L139.239,886.206C138.569,878.841 132.395,873.202 125,873.202L100,873.202C92.605,873.202 86.431,878.841 85.761,886.206L73.261,1023.71C72.898,1027.71 74.234,1031.67 76.942,1034.64C79.651,1037.61 83.483,1039.3 87.5,1039.3L137.5,1039.3Z" style="fill:rgb(116,115,148);"/>
            </g>
        </g>
        <g transform="matrix(-0.173648,-0.984808,0.984808,-0.173648,113.304,1295.07)">
            <g transform="matrix(3.06179e-16,1,-1,3.06179e-16,1062.5,487.5)">
                <path d="M137.5,1039.3C141.517,1039.3 145.349,1037.61 148.058,1034.64C150.766,1031.67 152.102,1027.71 151.739,1023.71L139.239,886.206C138.569,878.841 132.395,873.202 125,873.202L100,873.202C92.605,873.202 86.431,878.841 85.761,886.206L73.261,1023.71C72.898,1027.71 74.234,1031.67 76.942,1034.64C79.651,1037.61 83.483,1039.3 87.5,1039.3L137.5,1039.3Z" style="fill:rgb(116,115,148);"/>
            </g>
            <g transform="matrix(3.83306e-17,-1,1,3.83306e-17,137.5,712.5)">
                <path d="M137.5,1039.3C141.517,1039.3 145.349,1037.61 148.058,1034.64C150.766,1031.67 152.102,1027.71 151.739,1023.71L139.239,886.206C138.569,878.841 132.395,873.202 125,873.202L100,873.202C92.605,873.202 86.431,878.841 85.761,886.206L73.261,1023.71C72.898,1027.71 74.234,1031.67 76.942,1034.64C79.651,1037.61 83.483,1039.3 87.5,1039.3L137.5,1039.3Z" style="fill:rgb(116,115,148);"/>
            </g>
        </g>
    </g>
    <g transform="matrix(1.44276,3.38216e-17,2.89919e-17,1,-276.319,21.2512)">
        <g id="Backing">
            <path d="M814.047,1200L430.702,1200L526.538,867.591L718.211,867.591L814.047,1200Z" style="fill:white;"/>
        </g>
    </g>
    <g transform="matrix(1,0,0,1,309.118,426.342)">
        <g id="Gear">
            <path id="cog" d="M340.305,-111.152C321.812,-112.949 303.188,-112.949 284.695,-111.152L276.269,-61.767C258.896,-59.109 241.868,-54.546 225.493,-48.162L193.504,-86.718C176.59,-79.027 160.461,-69.715 145.344,-58.912L162.74,-11.931C149.023,-0.942 136.558,11.523 125.569,25.24L78.588,7.844C67.785,22.961 58.473,39.09 50.782,56.004L89.338,87.993C82.954,104.368 78.391,121.396 75.733,138.769L26.348,147.195C24.551,165.688 24.551,184.312 26.348,202.805L75.733,211.231C78.391,228.604 82.954,245.632 89.338,262.007L50.782,293.996C58.473,310.91 67.785,327.039 78.588,342.156L125.569,324.76C136.558,338.477 149.023,350.942 162.74,361.931L145.344,408.912C160.461,419.715 176.59,429.027 193.504,436.718L225.493,398.162C241.868,404.546 258.896,409.109 276.269,411.767L284.695,461.152C303.188,462.949 321.812,462.949 340.305,461.152L348.731,411.767C366.104,409.109 383.132,404.546 399.507,398.162L431.496,436.718C448.41,429.027 464.539,419.715 479.656,408.912L462.26,361.931C475.977,350.942 488.442,338.477 499.431,324.76L546.412,342.156C557.215,327.039 566.527,310.91 574.218,293.996L535.662,262.007C542.046,245.632 546.609,228.604 549.267,211.231L598.652,202.805C600.449,184.312 600.449,165.688 598.652,147.195L549.267,138.769C546.609,121.396 542.046,104.368 535.662,87.993L574.218,56.004C566.527,39.09 557.215,22.961 546.412,7.844L499.431,25.24C488.442,11.523 475.977,-0.942 462.26,-11.931L479.656,-58.912C464.539,-69.715 448.41,-79.027 431.496,-86.718L399.507,-48.162C383.132,-54.546 366.104,-59.109 348.731,-61.767L340.305,-111.152Z" style="fill:rgb(70,62,67);"/>
        </g>
    </g>
    <g id="Eyes" transform="matrix(1,0,0,1,-2.76579,21.2512)">
        <g id="Eye2" transform="matrix(1,0,0,1,394.711,-558.296)">
            <path d="M104.46,1061.23C125.752,1061.23 143.038,1078.52 143.038,1099.81C143.038,1121.1 125.752,1138.39 104.46,1138.39C83.168,1138.39 65.882,1121.1 65.882,1099.81C65.882,1078.52 83.168,1061.23 104.46,1061.23ZM104.46,1080.52C115.106,1080.52 123.749,1089.16 123.749,1099.81C123.749,1110.45 115.106,1119.1 104.46,1119.1C93.814,1119.1 85.171,1110.45 85.171,1099.81C85.171,1089.16 93.814,1080.52 104.46,1080.52Z" style="fill:white;"/>
        </g>
        <g id="Eye1" transform="matrix(1,0,0,1,645.136,-558.296)">
            <path d="M104.46,1061.23C125.752,1061.23 143.038,1078.52 143.038,1099.81C143.038,1121.1 125.752,1138.39 104.46,1138.39C83.168,1138.39 65.882,1121.1 65.882,1099.81C65.882,1078.52 83.168,1061.23 104.46,1061.23ZM104.46,1080.52C115.106,1080.52 123.749,1089.16 123.749,1099.81C123.749,1110.45 115.106,1119.1 104.46,1119.1C93.814,1119.1 85.171,1110.45 85.171,1099.81C85.171,1089.16 93.814,1080.52 104.46,1080.52Z" style="fill:white;"/>
        </g>
    </g>
    <g id="Lids">
        <g id="Lid2" transform="matrix(4.62752e-17,1.11149,-1,4.16334e-17,1204.98,505.527)">
            <path d="M51.495,669.635C23.074,669.635 0,691.43 0,718.275C0,745.12 23.074,766.915 51.495,766.915C42.969,755.566 36.047,737.678 36.047,718.275C36.047,698.872 42.969,680.985 51.495,669.635Z" style="fill:rgb(105,186,201);"/>
        </g>
        <g id="Lid-1" serif:id="Lid 1" transform="matrix(-4.62752e-17,1.11149,1,4.16334e-17,38.5272,505.527)">
            <path d="M51.495,669.635C23.074,669.635 0,691.43 0,718.275C0,745.12 23.074,766.915 51.495,766.915C42.969,755.566 36.047,737.678 36.047,718.275C36.047,698.872 42.969,680.985 51.495,669.635Z" style="fill:rgb(105,186,201);"/>
        </g>
    </g>
    <g id="Bulb" transform="matrix(1,0,0,1,21.618,138.842)">
        <path d="M455.733,808.701C320.276,752.117 225,618.347 225,462.5C225,255.532 393.032,87.5 600,87.5C806.968,87.5 975,255.532 975,462.5C975,618.347 879.724,752.117 744.267,808.701L732.636,856.868L744.32,856.868C751.158,856.868 756.701,861.144 756.701,866.418L756.701,884.797C756.701,890.071 751.158,894.347 744.32,894.347L723.586,894.347L718.757,914.347L734.311,914.347C740.675,914.347 745.833,918.622 745.833,923.897L745.833,942.275C745.833,947.55 740.675,951.825 734.311,951.825L709.706,951.825L704.877,971.825L715.124,971.825C720.578,971.825 725,976.101 725,981.375L725,999.754C725,1005.03 720.578,1009.3 715.124,1009.3L695.827,1009.3L681.853,1067.17C679.695,1076.11 671.695,1082.41 662.5,1082.41L537.5,1082.41C528.305,1082.41 520.305,1076.11 518.147,1067.17L504.173,1009.3L484.876,1009.3C479.422,1009.3 475,1005.03 475,999.754L475,981.375C475,976.101 479.422,971.825 484.876,971.825L495.123,971.825L490.294,951.825L465.689,951.825C459.325,951.825 454.167,947.55 454.167,942.275L454.167,923.897C454.167,918.622 459.325,914.347 465.689,914.347L481.243,914.347L476.414,894.347L455.68,894.347C448.842,894.347 443.299,890.071 443.299,884.797L443.299,866.418C443.299,861.144 448.842,856.868 455.68,856.868L467.364,856.868L455.733,808.701ZM600,146.328C774.5,146.328 916.172,288 916.172,462.5C916.172,637 774.5,778.672 600,778.672C425.5,778.672 283.828,637 283.828,462.5C283.828,288 425.5,146.328 600,146.328Z" style="fill:rgb(255,183,0);"/>
    </g>
    <g id="Owl" transform="matrix(1.21946,0,0,1.21946,-110.056,3.7078)">
        <path d="M599.891,705.009L600.089,705.009C601.952,704.97 603.568,703.695 604.035,701.884C617.418,649.98 643.801,606.021 683.365,570.127C700.204,575.421 718.449,578.322 737.5,578.322C822.776,578.322 891.667,520.218 891.667,449.155C891.667,425.256 883.914,402.85 870.367,383.618C882.23,375.206 893.237,365.828 903.038,355.383C904.135,354.214 904.464,352.52 903.885,351.025C903.305,349.531 901.92,348.501 900.322,348.378C900.322,348.378 893.883,347.878 882.883,347.421C890.03,341.598 896.78,335.364 903.038,328.695C904.135,327.526 904.464,325.831 903.885,324.337C903.305,322.842 901.92,321.813 900.322,321.689C900.322,321.689 894.638,321.249 884.83,320.816C891.262,315.454 897.353,309.754 903.038,303.695C904.135,302.526 904.464,300.831 903.885,299.337C903.305,297.842 901.92,296.813 900.322,296.689C900.322,296.689 825.938,290.93 751.03,300.622C706.067,306.44 660.958,317.893 631.261,339.219C616.6,349.747 605.623,362.656 600,378.403C594.377,362.656 583.4,349.747 568.739,339.219C539.042,317.893 493.933,306.44 448.97,300.622C374.062,290.93 299.678,296.689 299.678,296.689C298.08,296.813 296.695,297.842 296.115,299.337C295.536,300.831 295.865,302.526 296.962,303.695C302.647,309.754 308.738,315.453 315.169,320.816C305.362,321.249 299.678,321.689 299.678,321.689C298.08,321.813 296.695,322.842 296.115,324.337C295.536,325.831 295.865,327.526 296.962,328.695C303.22,335.364 309.97,341.598 317.117,347.421C306.117,347.879 299.678,348.378 299.678,348.378C298.08,348.501 296.695,349.531 296.115,351.025C295.536,352.52 295.865,354.214 296.962,355.383C306.763,365.828 317.77,375.206 329.633,383.619C316.086,402.85 308.333,425.256 308.333,449.155C308.333,520.218 377.224,578.322 462.5,578.322C481.551,578.322 499.796,575.421 516.635,570.127L516.635,570.127C556.03,605.885 582.528,650.293 595.968,701.894L596.121,702.366C596.298,702.818 596.55,703.227 596.859,703.581L597.193,703.923L597.572,704.229L597.858,704.418L598.063,704.533C598.509,704.767 598.999,704.922 599.515,704.982L599.891,705.009ZM492.821,387.5C538.177,387.5 575,415.505 575,450C575,484.495 538.177,512.5 492.821,512.5C447.465,512.5 410.641,484.495 410.641,450C410.641,415.505 447.465,387.5 492.821,387.5ZM707.179,387.5C752.535,387.5 789.359,415.505 789.359,450C789.359,484.495 752.535,512.5 707.179,512.5C661.823,512.5 625,484.495 625,450C625,415.505 661.823,387.5 707.179,387.5Z"/>
    </g>
    <g id="Goggles" transform="matrix(1.43395,0,0,1.33771,-983.81,461.375)">
        <g>
            <g transform="matrix(1,0,0,1,-571.185,-308.97)">
                <path d="M1605.06,289.802C1664.19,289.802 1712.2,328.201 1712.2,375.498C1712.2,422.794 1664.19,461.193 1605.06,461.193C1545.93,461.193 1497.92,422.794 1497.92,375.498C1497.92,328.201 1545.93,289.802 1605.06,289.802ZM1605.06,324.08C1640.54,324.08 1669.34,347.12 1669.34,375.498C1669.34,403.876 1640.54,426.915 1605.06,426.915C1569.58,426.915 1540.78,403.876 1540.78,375.498C1540.78,347.12 1569.58,324.08 1605.06,324.08Z" style="fill:rgb(105,186,201);"/>
            </g>
            <g transform="matrix(1,0,0,1,-399.763,-308.97)">
                <path d="M1605.06,289.802C1664.19,289.802 1712.2,328.201 1712.2,375.498C1712.2,422.794 1664.19,461.193 1605.06,461.193C1545.93,461.193 1497.92,422.794 1497.92,375.498C1497.92,328.201 1545.93,289.802 1605.06,289.802ZM1605.06,324.08C1640.54,324.08 1669.34,347.12 1669.34,375.498C1669.34,403.876 1640.54,426.915 1605.06,426.915C1569.58,426.915 1540.78,403.876 1540.78,375.498C1540.78,347.12 1569.58,324.08 1605.06,324.08Z" style="fill:rgb(105,186,201);"/>
            </g>
        </g>
    </g>
    <g id="Infinite-Owl" serif:id="Infinite Owl" transform="matrix(-1.2882,1.57759e-16,-1.57759e-16,-1.2882,920.071,2532.26)">
        <g transform="matrix(173.616,0,0,173.616,163.863,1221.25)">
            <path d="M0.048,-0.349C0.048,-0.467 0.08,-0.56 0.144,-0.628C0.208,-0.695 0.29,-0.729 0.391,-0.729C0.457,-0.729 0.517,-0.713 0.57,-0.681C0.623,-0.65 0.663,-0.606 0.691,-0.549C0.719,-0.493 0.733,-0.429 0.733,-0.357C0.733,-0.284 0.718,-0.219 0.689,-0.162C0.66,-0.105 0.618,-0.061 0.564,-0.032C0.511,-0.003 0.453,0.012 0.391,0.012C0.323,0.012 0.263,-0.004 0.21,-0.037C0.157,-0.069 0.117,-0.114 0.089,-0.17C0.062,-0.226 0.048,-0.286 0.048,-0.349ZM0.146,-0.347C0.146,-0.261 0.169,-0.193 0.216,-0.143C0.262,-0.094 0.32,-0.069 0.39,-0.069C0.461,-0.069 0.52,-0.094 0.566,-0.144C0.612,-0.194 0.635,-0.265 0.635,-0.357C0.635,-0.416 0.625,-0.467 0.606,-0.51C0.586,-0.553 0.557,-0.587 0.519,-0.611C0.481,-0.635 0.439,-0.647 0.392,-0.647C0.325,-0.647 0.267,-0.624 0.219,-0.578C0.17,-0.532 0.146,-0.455 0.146,-0.347Z" style="fill-rule:nonzero;"/>
        </g>
        <g transform="matrix(1,0,0,1,161.897,111.204)">
            <g transform="matrix(173.616,0,0,173.616,40.6648,1062.02)">
                <path d="M0.223,-0.644L0.223,-0.092L0.303,-0.092L0.303,-0L0.032,-0L0.032,-0.092L0.112,-0.092L0.112,-0.644L0.032,-0.644L0.032,-0.736L0.303,-0.736L0.303,-0.644L0.223,-0.644Z" style="fill-rule:nonzero;"/>
            </g>
        </g>
    </g>
</svg>
