<?xml version="1.0" encoding="UTF-8" standalone="no"?>
<!DOCTYPE svg PUBLIC "-//W3C//DTD SVG 1.1//EN" "http://www.w3.org/Graphics/SVG/1.1/DTD/svg11.dtd">
<svg width="100%" height="100%" viewBox="0 0 959 647" version="1.1" xmlns="http://www.w3.org/2000/svg" xmlns:xlink="http://www.w3.org/1999/xlink" xml:space="preserve" xmlns:serif="http://www.serif.com/" style="fill-rule:evenodd;clip-rule:evenodd;stroke-linecap:round;stroke-linejoin:round;stroke-miterlimit:1.5;">
  <g transform="translate(-121 -302)">
    <g id="OwlBacking">
      <path fill="#00FFFF" d="M600 948c3 0 6-2 7-5 21-82 62-151 125-208 77 25 167 16 235-30 67-44 109-128 86-208-5-20-15-39-27-55 21-15 34-27 52-45a7 7 0 0 0-5-11l-27-1 32-30a7 7 0 0 0-5-11l-24-1 29-27a7 7 0 0 0-5-11c-24-1-48-3-73-3a1203 1203 0 0 0-215 18c-17 3-33 7-50 12-54 16-114 45-135 101-20-56-80-85-134-101a603 603 0 0 0-104-21 1451 1451 0 0 0-235-6 7 7 0 0 0-4 11l29 27-25 1a7 7 0 0 0-4 11c10 11 20 20 32 30l-28 1a7 7 0 0 0-4 11c15 17 33 31 51 45-11 16-21 35-26 55-23 80 19 164 86 208 68 46 158 55 235 30 62 57 104 127 125 208v1l1 2h1l1 1 3 1Z"/>
    </g>
    <g id="Owl">
      <path stroke="#000" d="M600 875h0c3 0 5-2 5-4 17-63 49-117 97-160 21 6 43 10 66 10 104 0 188-71 188-158 0-29-9-56-26-80 15-10 28-22 40-34a5 5 0 0 0-3-9l-22-1 25-23a5 5 0 0 0-3-8l-19-2 22-20a5 5 0 0 0-3-9s-91-7-182 5c-55 7-110 21-147 47-17 13-31 29-38 48-7-19-20-35-38-48-36-26-91-40-146-47-91-12-182-5-182-5a5 5 0 0 0-3 9l22 20-19 2a5 5 0 0 0-3 8l24 23-21 1a5 5 0 0 0-3 9c12 12 25 24 40 34-17 24-26 51-26 80 0 87 84 158 188 158 23 0 45-4 66-10h0c48 43 80 97 96 160l1 1 1 1v1h1l2 1h0Zm72-249c17 9 37 14 59 14 55 0 100-34 100-76s-45-76-100-76-100 34-100 76c0 18 8 35 22 48l-48 67a6 6 0 0 1-9 0l-48-67c14-13 22-30 22-48 0-42-45-76-100-76-56 0-101 34-101 76s45 76 101 76c22 0 42-5 58-14l68 91a6 6 0 0 0 9 0l67-91Z"/>
    </g>
  </g>
</svg>